<svg viewBox="0 0 560 586" fill="none" xmlns="http://www.w3.org/2000/svg"
      xmlnsXlink="http://www.w3.org/1999/xlink">
      <path
            d="M157.047 2.66623C184.722 55.4068 210.953 108.872 235.742 163.061C236.186 164.037 237.127 164.693 238.197 164.771C239.266 164.85 240.294 164.34 240.876 163.439C243.188 159.807 247.339 157.267 251.673 157.489C257.91 157.808 262.769 162.709 267.522 166.76C274.535 172.738 284.189 177.6 292.72 174.116C299.219 171.462 303.059 164.678 305.151 157.977C307.242 151.277 308.112 144.156 311.14 137.823C314.168 131.49 320.199 125.843 327.213 126.141C335.438 126.492 341.45 134.565 349.535 136.117C354.905 137.147 360.498 135.084 364.867 131.797C369.236 128.509 372.594 124.088 375.893 119.726L325.781 92.4127C318.319 88.3461 213.016 0.607631 157.047 2.66623Z"
            fill="#C3DDFD" />
      <path
            d="M385.095 184.532C384.618 178.287 387.374 172.233 392.398 168.492C395.328 166.355 398.809 165.534 402.192 164.402C410.65 161.759 416.799 154.437 417.939 145.649C418.324 142.908 418.115 140.116 417.325 137.463C416.295 134.105 414.246 131.224 412.287 128.357C410.078 125.299 408.385 121.899 407.276 118.294C406.2 114.75 405.937 111.01 406.505 107.351C407.023 104.009 408.652 100.939 411.129 98.6363C412.284 97.5899 413.636 96.7851 415.107 96.2696C416.839 95.6809 418.579 95.7101 420.386 95.716C423.387 95.799 426.321 94.8102 428.659 92.9268C430.859 91.1323 432.45 88.7012 433.213 85.967C433.593 84.616 433.73 83.2081 433.616 81.8094C433.385 80.0653 432.905 78.3635 432.19 76.7565C430.985 73.9168 430.483 70.8286 430.725 67.7536C431.26 62.043 434.507 56.4908 439.475 53.5438C444.781 50.3952 451.297 50.4538 457.004 52.4248C469.254 56.6551 476.799 69.286 476.934 81.9321C476.975 85.0899 476.543 88.236 475.65 91.2655C474.637 94.6766 473.111 97.9037 471.774 101.193C470.471 104.395 469.332 107.702 469.078 111.174C468.801 114.972 469.959 118.49 471.248 122.007C473.887 129.203 475.495 137.024 473.569 144.611C472.043 150.623 468.229 156.246 462.58 159.046C457.321 161.653 450.806 161.613 446.269 165.671C443.662 168.002 442.816 171.386 441.085 174.298C439.421 177.05 436.892 179.172 433.895 180.335C430.623 181.603 427.292 181.472 423.919 180.7C420.456 179.908 417.042 178.67 413.456 178.585C407.163 178.437 402.349 182.523 398.902 187.406C397.232 189.85 395.738 192.408 394.431 195.064C393.954 195.999 395.364 196.827 395.843 195.889C398.52 190.648 401.672 184.759 407.005 181.794C409.949 180.158 413.224 179.944 416.491 180.562C420.094 181.244 423.559 182.571 427.23 182.897C433.828 183.42 440.09 179.917 443.097 174.022C443.93 172.382 444.576 170.644 445.548 169.077C446.351 167.78 447.43 166.678 448.71 165.849C451.25 164.199 454.257 163.48 457.139 162.676C460.133 161.84 463.106 160.892 465.69 159.113C468.295 157.293 470.489 154.947 472.13 152.226C475.862 146.125 476.641 138.835 475.604 131.862C474.933 127.989 473.875 124.193 472.444 120.531C471.721 118.691 471.181 116.784 470.832 114.838C470.577 113.05 470.607 111.234 470.92 109.455C472.109 102.428 476.312 96.3538 477.814 89.4093C480.519 76.8983 475.779 62.8123 465.436 55.0758C460.474 51.3642 454.155 49.1035 447.92 49.4223C441.826 49.6682 436.198 52.749 432.708 57.7495C429.349 62.5893 428.073 68.9981 429.724 74.6955C430.234 76.4549 431.061 78.1023 431.581 79.858C432.028 81.3174 432.135 82.8594 431.896 84.3666C431.399 87.185 429.926 89.7386 427.734 91.5791C426.651 92.5044 425.392 93.2027 424.034 93.6325C422.368 94.1489 420.682 94.0657 418.959 94.0688C415.641 94.0366 412.433 95.2546 409.973 97.4805C404.494 102.381 403.763 110.376 405.302 117.169C406.17 120.875 407.69 124.396 409.792 127.568C411.758 130.585 414.108 133.464 415.395 136.864C417.411 142.195 416.493 148.2 413.717 153.084C412.307 155.586 410.413 157.784 408.146 159.548C405.46 161.616 402.371 162.646 399.171 163.643C395.873 164.67 392.77 165.92 390.144 168.221C387.843 170.261 386.04 172.802 384.874 175.648C383.7 178.454 383.215 181.501 383.46 184.532C383.55 185.573 385.185 185.582 385.095 184.532Z"
            fill="#76A9FA" />
      <path
            d="M443.596 66.697C441.741 68.9731 441.37 71.9032 441.838 74.7343C442.381 78.0181 444.125 80.9329 445.312 84.0002C447.606 89.9284 447.917 97.1229 443.735 102.319C441.736 104.801 439.062 106.138 436.033 106.967C433.064 107.78 429.99 108.288 427.273 109.816C424.737 111.242 422.809 113.491 422.41 116.438C421.969 119.693 423.236 122.779 424.565 125.675C426.162 129.153 427.405 132.636 427.703 136.483C427.994 140.25 427.509 144.037 426.277 147.608C425.933 148.605 427.512 149.033 427.853 148.043C429.988 141.822 429.938 135.059 427.71 128.87C426.557 125.719 424.656 122.797 424.091 119.45C423.576 116.395 424.576 113.586 427.157 111.812C429.706 110.059 432.764 109.499 435.705 108.745C438.687 107.98 441.523 106.882 443.767 104.705C448.247 100.356 449.358 93.8105 448.16 87.8771C447.403 84.1274 445.535 80.8682 444.241 77.3104C443.154 74.3215 442.575 70.5229 444.752 67.8528C445.411 67.044 444.261 65.8806 443.596 66.6968L443.596 66.697Z"
            fill="#76A9FA" />
      <path
            d="M424.477 154.486C424.918 154.471 425.267 154.11 425.267 153.669C425.267 153.228 424.918 152.867 424.477 152.852C424.037 152.867 423.688 153.228 423.688 153.669C423.688 154.11 424.037 154.471 424.477 154.486Z"
            fill="#76A9FA" />
      <path
            d="M420.142 159.733C420.582 159.718 420.931 159.356 420.931 158.916C420.931 158.475 420.582 158.113 420.142 158.098C419.701 158.113 419.352 158.475 419.352 158.916C419.352 159.356 419.701 159.718 420.142 159.733Z"
            fill="#76A9FA" />
      <path
            d="M415.02 163.155C412.181 166.702 407.416 167.2 403.314 168.3C399.342 169.333 395.726 171.426 392.852 174.355C391.295 175.959 389.992 177.79 388.986 179.786C388.514 180.724 389.924 181.552 390.397 180.611C392.167 177.087 394.906 174.142 398.294 172.123C400.082 171.085 402.008 170.305 404.014 169.807C406.202 169.236 408.443 168.841 410.569 168.053C412.744 167.338 414.682 166.044 416.176 164.311C416.827 163.497 415.678 162.333 415.02 163.155L415.02 163.155Z"
            fill="#76A9FA" />
      <path
            d="M394.7 184.119C397.057 181.147 400.018 178.71 403.388 176.969C407.14 175.035 411.191 174.325 415.339 173.795C416.368 173.663 416.381 172.027 415.339 172.16C410.972 172.718 406.742 173.448 402.775 175.45C399.193 177.261 396.044 179.824 393.543 182.963C392.895 183.778 394.044 184.942 394.699 184.119H394.7Z"
            fill="#76A9FA" />
      <path
            d="M421.284 171.238C428.364 170.3 434.315 165.261 437.322 158.896C439.032 155.155 439.948 151.101 440.013 146.988C440.13 142.716 439.396 138.558 438.42 134.418C437.476 130.415 436.444 125.905 438.494 122.063C440.115 119 443.139 116.93 446.582 116.529C450.082 116.275 453.465 117.85 455.523 120.692C457.493 123.494 457.781 127.146 456.276 130.222C454.696 133.514 450.227 137.035 446.745 134.106C445.235 132.928 444.65 130.914 445.295 129.11C445.987 127.329 447.661 126.12 449.569 126.023C450.619 125.995 450.624 124.36 449.569 124.388C445.798 124.489 442.629 128.2 443.533 131.962C444.007 133.875 445.336 135.462 447.137 136.264C448.937 137.066 451.006 136.992 452.745 136.065C456.107 134.49 458.305 131.015 458.775 127.394C459.246 123.64 457.729 119.911 454.771 117.551C451.831 115.098 447.859 114.276 444.187 115.36C440.551 116.52 437.659 119.302 436.359 122.889C434.762 127.415 436.273 132.274 437.286 136.746C438.4 141.301 438.667 146.022 438.072 150.673C436.906 158.636 432.013 166.455 424.023 168.982C423.13 169.268 422.213 169.476 421.284 169.604C420.256 169.74 420.242 171.377 421.284 171.239V171.238Z"
            fill="#76A9FA" />
      <path
            d="M450.024 109.321C450.465 109.306 450.814 108.944 450.814 108.503C450.814 108.063 450.465 107.701 450.024 107.686C449.584 107.701 449.234 108.063 449.234 108.503C449.234 108.944 449.584 109.306 450.024 109.321Z"
            fill="#76A9FA" />
      <path
            d="M455.727 110.005C456.167 109.99 456.516 109.628 456.516 109.188C456.516 108.747 456.167 108.386 455.727 108.37C455.286 108.386 454.938 108.747 454.938 109.188C454.938 109.628 455.286 109.99 455.727 110.005Z"
            fill="#76A9FA" />
      <path
            d="M461.883 115.252C462.323 115.236 462.672 114.875 462.672 114.434C462.672 113.994 462.323 113.632 461.883 113.617C461.443 113.632 461.094 113.994 461.094 114.434C461.094 114.875 461.443 115.236 461.883 115.252Z"
            fill="#76A9FA" />
      <path
            d="M465.037 127.251C466.545 131.739 465.747 136.682 462.903 140.467C460.302 143.922 456.225 145.948 451.9 145.934C449.511 145.914 447.188 145.148 445.256 143.742C444.407 143.119 443.591 144.537 444.431 145.154C448.307 148 453.626 148.222 457.968 146.356C462.423 144.394 465.733 140.497 466.947 135.783C467.685 132.822 467.57 129.714 466.614 126.816C466.285 125.822 464.706 126.248 465.037 127.251L465.037 127.251Z"
            fill="#76A9FA" />
      <path
            d="M448.251 155.277C449.157 155.819 450.315 155.68 451.066 154.938C451.217 154.783 451.302 154.576 451.305 154.36C451.304 154.143 451.218 153.936 451.066 153.782C450.912 153.629 450.705 153.543 450.488 153.542C450.272 153.545 450.065 153.631 449.91 153.782C449.863 153.83 449.812 153.876 449.758 153.917L449.924 153.789C449.829 153.86 449.726 153.919 449.617 153.966L449.812 153.884C449.686 153.935 449.555 153.971 449.42 153.99L449.637 153.96C449.502 153.977 449.366 153.977 449.231 153.96L449.448 153.99C449.323 153.972 449.2 153.939 449.082 153.89L449.278 153.973C449.208 153.942 449.14 153.906 449.076 153.865C448.685 153.642 448.188 153.772 447.957 154.159C447.739 154.55 447.869 155.043 448.251 155.277L448.251 155.277Z"
            fill="#76A9FA" />
      <path
            d="M452.759 64.6259C455.374 64.1274 457.844 65.7806 459.272 67.8662C461.071 70.4951 461.207 73.7379 460.827 76.809C460.035 83.2156 457.107 89.7161 460.076 96.0068C460.814 97.5698 461.842 99.0192 462.374 100.674C462.839 102.119 462.981 103.91 461.953 105.157C461.288 105.962 462.439 107.125 463.109 106.313C465.272 103.688 464.208 100.303 462.771 97.6126C461.91 96.0019 461.022 94.4562 460.64 92.6492C460.315 90.8985 460.273 89.1069 460.515 87.3428C461.26 80.7659 464.902 73.0629 460.621 66.9506C458.737 64.2604 455.677 62.4104 452.324 63.0496C451.292 63.2463 451.729 64.8222 452.758 64.6259H452.759Z"
            fill="#76A9FA" />
      <path
            d="M452.072 73.9258H451.931C451.49 73.9409 451.141 74.3024 451.141 74.7432C451.141 75.1841 451.49 75.5456 451.931 75.5606H452.072C452.512 75.5456 452.862 75.1841 452.862 74.7432C452.862 74.3024 452.512 73.9409 452.072 73.9258H451.931C451.49 73.9409 451.141 74.3024 451.141 74.7432C451.141 75.1841 451.49 75.5456 451.931 75.5606H452.072C452.512 75.5456 452.862 75.1841 452.862 74.7432C452.862 74.3024 452.512 73.9409 452.072 73.9258L452.072 73.9258Z"
            fill="#76A9FA" />
      <path
            d="M452.532 82.4039C452.973 82.3889 453.322 82.0273 453.322 81.5865C453.322 81.1457 452.973 80.7842 452.532 80.7691C452.092 80.7842 451.742 81.1457 451.742 81.5865C451.742 82.0273 452.092 82.3889 452.532 82.4039Z"
            fill="#76A9FA" />
      <path
            d="M330.239 81.2424L336.616 91.8935C336.852 92.266 337.34 92.385 337.72 92.1626C338.101 91.9402 338.237 91.4563 338.028 91.0683L331.651 80.4173C331.415 80.0441 330.927 79.9247 330.546 80.1473C330.165 80.3699 330.029 80.8543 330.239 81.2424Z"
            fill="#76A9FA" />
      <path
            d="M353.555 70.4852V83.2593C353.57 83.6999 353.931 84.0493 354.372 84.0493C354.813 84.0493 355.174 83.6999 355.189 83.2593V70.4852C355.174 70.0446 354.813 69.6952 354.372 69.6952C353.931 69.6952 353.57 70.0446 353.555 70.4852H353.555Z"
            fill="#76A9FA" />
      <path
            d="M375.48 69.9637C374.058 74.2201 372.463 78.4131 370.696 82.5426C370.484 82.9345 370.612 83.4235 370.989 83.6609C371.379 83.8859 371.878 83.7552 372.107 83.3677C373.934 79.1135 375.584 74.7904 377.056 70.3984C377.39 69.3985 375.812 68.9693 375.48 69.9639V69.9637Z"
            fill="#76A9FA" />
      <path
            d="M389.649 91.7773L396.568 84.4057C397.287 83.639 396.133 82.4806 395.412 83.2497L388.493 90.6213C387.774 91.3881 388.927 92.5464 389.649 91.7773Z"
            fill="#76A9FA" />
      <path
            d="M395.431 105.367C395.871 105.352 396.221 104.99 396.221 104.55C396.221 104.109 395.871 103.747 395.431 103.732C394.99 103.747 394.641 104.109 394.641 104.55C394.641 104.99 394.99 105.352 395.431 105.367Z"
            fill="#76A9FA" />
      <path
            d="M266.472 208.967H37.607C36.5857 208.967 35.5179 208.877 34.4994 208.967C34.3699 208.978 34.2347 208.967 34.1044 208.967L34.9217 209.784V129.964C34.9217 126.056 34.9217 122.147 34.9217 118.238C34.9027 108.003 36.2285 97.8086 38.865 87.9183C41.9459 76.4788 46.7749 65.5837 53.1812 55.6181C79.8506 14.1044 129.949 -5.87876 177.869 5.88309C189.394 8.71736 200.412 13.3186 210.529 19.5235C230.613 31.8456 246.462 49.9986 255.962 71.5608C260.825 82.6239 263.906 94.3869 265.09 106.413C265.614 111.733 265.654 117.052 265.654 122.388V209.784C265.67 210.224 266.031 210.573 266.472 210.573C266.912 210.573 267.274 210.224 267.289 209.784V129.239C267.289 125.521 267.289 121.802 267.289 118.083C267.299 107.228 265.813 96.4229 262.871 85.9738C249.502 38.8043 208.124 4.98503 159.237 1.27045C146.991 0.337087 134.673 1.32385 122.731 4.195C75.121 15.7119 39.7348 55.682 34.0736 104.337C33.4718 110.16 33.2091 116.013 33.2867 121.866V209.784C33.2931 210.233 33.6554 210.595 34.1041 210.601H257.039C260.05 210.601 263.066 210.656 266.077 210.601C266.208 210.599 266.34 210.601 266.472 210.601C266.912 210.586 267.262 210.225 267.262 209.784C267.262 209.343 266.912 208.982 266.472 208.967Z"
            fill="#76A9FA" />
      <path
            d="M151.102 209.784V10.193C151.102 7.49768 151.153 4.79692 151.102 2.10194C151.1 1.98416 151.102 1.86607 151.102 1.74822C151.087 1.30765 150.726 0.958267 150.285 0.958267C149.844 0.958267 149.483 1.30765 149.468 1.74822V201.339C149.468 204.035 149.417 206.735 149.468 209.43C149.47 209.548 149.468 209.666 149.468 209.784C149.483 210.225 149.844 210.574 150.285 210.574C150.726 210.574 151.087 210.225 151.102 209.784Z"
            fill="#76A9FA" />
      <path
            d="M150.156 3.07883C162.764 27.1102 175.076 51.2939 187.09 75.6302C199.102 99.9648 210.813 124.445 222.221 149.072C223.662 152.182 225.098 155.295 226.53 158.41C227.186 159.837 227.84 161.265 228.494 162.694C229.017 163.836 229.571 164.791 230.778 165.296C232.721 166.109 234.466 165.182 235.579 163.575C237.142 161.257 239.449 159.541 242.119 158.711C247.771 157.053 252.985 160.704 257.087 164.169C261.362 167.779 265.467 171.439 270.629 173.761C275.45 175.929 280.985 176.977 286.094 175.156C290.945 173.427 294.516 169.505 296.911 165.059C302.366 154.935 301.372 141.855 309.122 132.903C312.485 129.018 317.365 126.186 322.648 127.137C327.66 128.039 331.732 131.509 336.022 134.002C340.606 136.665 345.479 137.951 350.732 136.61C356.493 135.139 361.198 131.27 365.049 126.886C366.945 124.726 368.68 122.43 370.413 120.139C370.638 119.749 370.507 119.25 370.12 119.021C353.374 109.894 336.59 100.834 319.882 91.6382C314.786 88.8333 309.809 85.7975 304.825 82.8002C295.708 77.3165 286.661 71.7169 277.686 66.0014C267.651 59.6052 257.702 53.0643 247.98 46.2008C240.023 40.5826 232.022 34.8157 224.912 28.1319C224.265 27.5243 223.63 26.9053 223.006 26.2749C222.265 25.5255 221.109 26.6814 221.85 27.4308C228.358 34.0162 235.965 39.5709 243.454 44.9721C253.069 51.9067 262.951 58.4719 272.918 64.8873C282.204 70.865 291.575 76.7091 301.03 82.4197C306.697 85.8501 312.373 89.28 318.141 92.538C324.428 96.0891 330.822 99.4623 337.162 102.918L362.983 116.992L369.295 120.432L369.002 119.314C365.38 124.102 361.621 129.101 356.46 132.336C351.569 135.402 345.756 136.58 340.299 134.339C335.722 132.46 331.953 129.087 327.471 127.02C323.05 124.981 318.314 124.724 313.909 126.972C303.32 132.376 301.682 145.053 298.885 155.324C297.51 160.376 295.534 165.477 291.897 169.356C288.192 173.375 282.677 175.202 277.304 174.188C271.666 173.185 266.517 170.047 262.185 166.412C258.266 163.122 254.518 159.282 249.604 157.507C244.749 155.725 239.298 157.012 235.753 160.778C234.979 161.583 234.432 162.754 233.599 163.471C232.752 164.167 231.517 164.114 230.733 163.348C230.291 162.788 229.951 162.156 229.727 161.479C229.4 160.765 229.073 160.051 228.745 159.337C228.001 157.714 227.255 156.092 226.508 154.471C215.391 130.342 203.983 106.35 192.285 82.4947C180.525 58.5136 168.475 34.6778 156.134 10.9874C154.616 8.0739 153.094 5.16266 151.568 2.25371C151.079 1.32169 149.667 2.14711 150.156 3.07883Z"
            fill="#76A9FA" />
      <path
            d="M68.1642 92.4407H84.1318C84.572 92.4252 84.9209 92.0638 84.9209 91.6233C84.9209 91.1828 84.572 90.8214 84.1318 90.8059H68.1642C67.7239 90.8214 67.375 91.1828 67.375 91.6233C67.375 92.0638 67.7239 92.4252 68.1642 92.4407Z"
            fill="#76A9FA" />
      <path
            d="M87.2517 91.2067C84.9903 88.8212 84.7212 84.9654 86.3125 82.1427C87.9552 79.2284 91.4098 78.156 94.5538 78.9934C96.3495 79.4395 97.9114 80.5454 98.9285 82.0911C99.1426 82.432 99.5722 82.5675 99.9432 82.4111C100.314 82.2547 100.517 81.8525 100.422 81.4612C98.7497 75.4073 101.846 69.0552 107.645 66.6435C113.816 64.3123 120.773 66.7076 124.2 72.3439C126.033 75.3871 126.745 78.9755 126.212 82.488C126.11 82.9164 126.366 83.3482 126.791 83.4651C127.215 83.5821 127.656 83.3423 127.788 82.9225C129.015 79.1847 132.176 76.4083 136.04 75.6727C139.992 74.8909 143.956 76.8193 146.182 80.1028C147.464 81.9515 148.114 84.1659 148.032 86.4145C148.042 86.7785 148.289 87.0931 148.64 87.1882C148.992 87.2834 149.364 87.1365 149.555 86.827C151.065 83.8957 154.15 82.1186 157.443 82.2832C160.736 82.4478 163.628 84.5237 164.838 87.5909C165.026 87.9094 165.404 88.063 165.761 87.9665L169.584 87.048C170.606 86.8024 170.173 85.2256 169.149 85.4717L165.326 86.3902L166.249 86.7658C164.743 83.1941 161.312 80.8116 157.439 80.6482C153.566 80.4848 149.946 82.5698 148.144 86.0019L149.667 86.4145C149.764 81.7513 147.247 77.425 143.144 75.2056C139.06 73.1084 134.129 73.578 130.514 76.4085C128.472 77.9277 126.966 80.0567 126.212 82.488L127.789 82.9225C128.902 75.9318 125.456 68.3559 118.815 65.4435C112.185 62.5365 104.08 64.5586 100.316 70.9234C98.3292 74.2199 97.7969 78.1924 98.8461 81.8957L100.34 81.2658C98.0844 77.9256 93.9719 76.3648 90.0681 77.3673C86.0684 78.3873 83.6116 82.2014 83.673 86.2325C83.6829 88.5076 84.5478 90.6958 86.096 92.363C86.8213 93.1281 87.9759 91.9706 87.2519 91.207L87.2517 91.2067Z"
            fill="#76A9FA" />
      <path
            d="M185.415 118.445H219.175C219.616 118.43 219.965 118.069 219.965 117.628C219.965 117.187 219.616 116.825 219.175 116.81H185.415C184.974 116.825 184.625 117.187 184.625 117.628C184.625 118.069 184.974 118.43 185.415 118.445Z"
            fill="#76A9FA" />
      <path
            d="M220.619 117.956C218.749 114.788 219.112 109.866 222.475 107.793C225.182 106.123 229.622 106.941 230.916 110.07C231.036 110.452 231.414 110.693 231.811 110.639C232.208 110.585 232.508 110.253 232.522 109.853C232.792 106.555 234.873 102.944 238.104 101.764C239.562 101.154 241.245 101.529 242.308 102.698C243.339 103.81 243.892 105.314 244.388 106.721L245.882 106.091C243.992 102.055 244.874 96.8287 248.207 93.8082C251.627 90.8355 256.627 90.5591 260.354 93.1367C261.21 93.7519 262.027 92.3345 261.179 91.7251C257.906 89.3711 253.477 89.1854 249.853 90.8123C246.1 92.4962 243.789 96.2345 243.345 100.247C243.099 102.531 243.489 104.839 244.471 106.916C244.861 107.748 246.273 107.16 245.965 106.286C245.353 104.551 244.651 102.727 243.327 101.399C241.908 99.9753 239.806 99.4761 237.899 100.11C233.799 101.395 231.223 105.757 230.887 109.853L232.493 109.636C231.182 106.467 227.714 104.925 224.409 105.404C220.702 105.94 218.311 109.155 217.91 112.737C217.68 114.839 218.135 116.959 219.207 118.781C219.442 119.154 219.931 119.274 220.312 119.051C220.692 118.829 220.828 118.344 220.619 117.956V117.956Z"
            fill="#76A9FA" />
      <path
            d="M34.7118 144.906H63.3015L62.4841 144.088V175.283C62.4905 175.732 62.8527 176.094 63.3015 176.101H76.1518L75.5738 175.861L82.7715 183.059C83.5592 183.847 84.3875 185.014 85.3412 185.61C85.7971 185.8 86.2965 185.861 86.7847 185.785H95.2369C95.6857 185.779 96.0479 185.417 96.0543 184.968V140.439L95.8149 141.017L106.503 131.785L123.561 117.052L127.507 113.644L126.929 113.883H150.288L149.47 113.066V143.511C149.47 144.275 149.255 145.397 149.502 146.143C149.866 147.239 152.12 146.954 152.979 146.973C155.371 147.026 157.765 147.003 160.157 146.976C164.37 146.929 168.582 146.848 172.794 146.731L172.216 146.491L190.471 164.746L193.05 167.325L192.811 166.747C192.985 172.27 193.238 177.832 193.037 183.356C193.023 183.742 192.94 184.159 192.962 184.543C192.957 184.446 193.08 184.739 192.989 184.533C192.58 183.598 194.476 185.764 193.952 185.666C193.974 185.67 194.24 185.658 193.998 185.65C194.976 185.684 195.993 185.542 196.976 185.531C200.471 185.49 203.967 185.554 207.461 185.62C209.896 185.666 212.331 185.721 214.766 185.785C215.215 185.78 215.578 185.417 215.584 184.968C215.609 178.718 218.875 172.93 224.212 169.677C227.568 167.647 231.21 167.108 235.045 167.108H266.471C266.912 167.093 267.261 166.732 267.261 166.291C267.261 165.85 266.912 165.489 266.471 165.474H235.098C231.168 165.474 227.408 166 223.912 167.959C217.784 171.435 213.983 177.923 213.949 184.968L214.766 184.151C210.38 184.031 205.991 183.94 201.603 183.9C199.258 183.879 196.889 183.81 194.547 183.968C194.005 184.004 193.23 183.979 192.914 184.519C192.351 185.482 193.82 186.293 194.401 185.358C194.633 184.765 194.724 184.125 194.667 183.491C194.713 182.34 194.712 181.187 194.709 180.036C194.701 177.047 194.638 174.057 194.565 171.068C194.538 169.996 194.51 168.925 194.479 167.853C194.749 166.994 194.398 166.06 193.629 165.592L191.901 163.864L179.868 151.831L174.753 146.716C174.164 146.127 173.521 145.164 172.644 145.1C170.894 144.972 169.051 145.188 167.299 145.224C164.24 145.287 161.18 145.339 158.121 145.359C155.831 145.374 153.515 145.438 151.229 145.269C151.04 145.228 150.848 145.207 150.655 145.204C150.723 145.158 150.971 146.243 151.105 145.748C151.165 145.226 151.165 144.698 151.105 144.175V113.066C151.098 112.617 150.736 112.255 150.287 112.248C142.631 112.248 134.966 112.127 127.311 112.248C126.747 112.266 126.216 112.513 125.838 112.931L122.931 115.442L112.25 124.667L100.699 134.644L96.602 138.182C95.9329 138.685 95.2989 139.233 94.7044 139.821C94.3111 140.273 94.4194 140.89 94.4194 141.455V175.194C94.4194 178.273 94.1928 181.451 94.4194 184.524C94.4302 184.67 94.4194 184.821 94.4194 184.968L95.2368 184.151H85.8363L86.4143 184.39L77.977 175.953C77.1718 175.148 76.7251 174.466 75.5483 174.466H63.3015L64.119 175.283V144.088C64.1126 143.64 63.7503 143.277 63.3015 143.271H34.7118C34.2713 143.286 33.9219 143.648 33.9219 144.088C33.9219 144.529 34.2713 144.891 34.7118 144.906Z"
            fill="#76A9FA" />
      <path
            d="M106.101 207.908C105.437 205.698 103.637 204.014 101.388 203.497C99.139 202.981 96.7853 203.71 95.2226 205.408C96.3286 202.999 95.5083 199.988 93.6483 198.099C91.7882 196.211 89.0768 195.342 86.4275 195.252C81.7433 195.129 77.2666 197.184 74.3043 200.814C75.0793 198.992 74.084 196.752 72.4111 195.693C70.7381 194.633 68.5889 194.581 66.6664 195.056C63.6987 195.805 61.1342 197.67 59.5069 200.262C59.5986 199.042 59.6902 197.823 59.7818 196.603C59.858 196.183 59.7971 195.749 59.6081 195.366C59.2078 194.909 58.6036 194.686 58.0024 194.773C55.8971 194.836 53.8995 195.718 52.4338 197.231C54.095 195.071 54.9007 192.375 54.6965 189.658C54.6654 188.562 54.2878 187.504 53.6179 186.636C52.5094 185.363 50.5607 185.104 48.9437 185.588C47.3268 186.073 45.9716 187.168 44.7026 188.281C45.9681 185.54 47.2532 182.727 47.4908 179.717C47.7283 176.708 46.7051 173.412 44.1934 171.737C42.114 170.35 39.3988 170.297 36.9525 170.81C35.9782 171.017 35.0241 171.309 34.1016 171.685V209.784H106.382C106.378 209.148 106.283 208.517 106.101 207.908Z"
            fill="#76A9FA" />
      <path
            d="M106.895 207.691C106.153 205.2 104.133 203.298 101.602 202.707C99.0714 202.116 96.4181 202.926 94.6496 204.83L95.9333 205.821C97.6647 201.832 95.3553 197.461 91.6097 195.661C87.7505 193.807 83.1355 194.165 79.3125 195.92C77.1482 196.916 75.2394 198.392 73.7312 200.236L75.0974 201.032C75.6839 199.313 75.2911 197.411 74.0717 196.065C72.7593 194.514 70.6603 193.897 68.6831 193.957C64.6634 194.079 60.9304 196.505 58.806 199.849L60.3292 200.262C60.528 198.837 60.6236 197.399 60.6153 195.96C60.5363 194.855 59.6237 193.994 58.5155 193.979C56.0817 193.729 53.5415 194.966 51.8609 196.653L53.1446 197.644C54.3942 195.984 55.1899 194.028 55.4534 191.967C55.6984 190.066 55.595 187.799 54.3474 186.239C53.1511 184.89 51.331 184.275 49.562 184.622C47.438 184.941 45.6992 186.333 44.1295 187.704L45.4133 188.694C47.535 184.096 49.7576 178.722 47.1394 173.839C44.512 168.94 38.4339 169.099 33.8892 170.897C33.5411 171.004 33.2998 171.321 33.2891 171.685V209.784C33.2955 210.233 33.6577 210.595 34.1065 210.602H97.4697C100.393 210.602 103.342 210.718 106.264 210.602C106.305 210.6 106.346 210.602 106.387 210.602C106.836 210.596 107.199 210.233 107.204 209.784C107.187 209.076 107.083 208.373 106.895 207.691C106.763 207.27 106.322 207.029 105.897 207.147C105.472 207.264 105.216 207.697 105.318 208.125C105.47 208.666 105.554 209.223 105.569 209.784L106.387 208.967H37.0753C36.1278 208.902 35.177 208.902 34.2295 208.967C34.1885 208.97 34.1474 208.97 34.1064 208.967L34.9238 209.784V171.685L34.3237 172.473C38.252 170.919 43.6078 170.444 45.8261 174.854C47.9711 179.119 45.8239 183.921 44.0018 187.869C43.81 188.223 43.9034 188.665 44.2223 188.911C44.5413 189.157 44.9916 189.135 45.2856 188.86C46.5355 187.768 47.9097 186.623 49.5766 186.272C50.954 185.981 52.5685 186.326 53.3185 187.614C54.0873 188.935 54.0351 190.791 53.7682 192.246C53.4579 193.909 52.7607 195.475 51.7331 196.819C51.1652 197.572 52.3778 198.451 53.0169 197.809C54.3025 196.483 56.0426 195.692 57.8874 195.595C58.169 195.585 58.7092 195.536 58.9147 195.792C59.1203 196.048 58.96 196.73 58.9378 197.026L58.6946 200.263C58.6305 201.115 59.812 201.314 60.2177 200.675C61.9307 197.941 64.7614 196.101 67.9553 195.645C69.5106 195.459 71.2872 195.677 72.4886 196.773C73.5958 197.709 74.007 199.232 73.5208 200.598C73.4319 200.953 73.5886 201.325 73.9051 201.509C74.2217 201.693 74.6219 201.646 74.887 201.393C77.8314 197.765 82.3545 195.792 87.0171 196.103C89.3552 196.211 91.5692 197.186 93.2274 198.838C94.7031 200.436 95.4136 202.941 94.5214 204.997C94.1782 205.787 95.1102 206.714 95.8051 205.987C97.1622 204.495 99.2159 203.847 101.184 204.289C103.151 204.732 104.73 206.197 105.318 208.126C105.638 209.123 107.217 208.697 106.895 207.691Z"
            fill="#76A9FA" />
      <path
            d="M266.467 186.604C265.511 187.34 264.757 188.309 264.279 189.417C264.043 187.763 263.265 185.64 261.599 185.771C260.784 185.924 260.079 186.429 259.671 187.151C258.776 188.45 258.274 189.979 258.224 191.555C257.846 186.854 255.714 182.466 252.253 179.263C251.695 178.698 251.023 178.26 250.282 177.977C249.004 177.656 247.65 177.888 246.552 178.616C242.523 180.988 241.451 186.394 242.528 191.025C241.19 188.057 237.253 186.314 234.235 187.727C232.195 188.682 230.814 190.713 230.169 192.871C229.616 195.059 229.432 197.323 229.624 199.572C228.705 196.644 225.647 194.955 222.679 195.736C219.711 196.517 217.88 199.493 218.522 202.494C216.692 198.746 211.199 197.769 207.745 200.107C204.7 202.167 203.341 206.109 203.763 209.784H266.467V186.604Z"
            fill="#76A9FA" />
      <path
            d="M265.892 186.025C264.894 186.82 264.1 187.842 263.575 189.005L265.069 189.2C264.777 187.289 263.692 184.554 261.275 184.998C259.988 185.234 259.104 186.391 258.515 187.475C257.84 188.733 257.462 190.129 257.408 191.555H259.043C258.627 186.531 256.268 181.421 252.292 178.217C251.349 177.38 250.115 176.947 248.855 177.011C247.621 177.139 246.446 177.605 245.461 178.359C243.715 179.683 242.452 181.545 241.868 183.658C241.184 186.134 241.14 188.744 241.741 191.241L243.235 190.612C241.588 187.123 236.999 185.307 233.524 187.173C229.089 189.554 228.624 195.116 228.808 199.571L230.414 199.354C229.288 196.107 225.92 194.208 222.56 194.924C219.185 195.74 217.094 199.384 217.735 202.711L219.229 202.081C217.808 199.284 214.597 197.86 211.546 198.043C208.096 198.299 205.098 200.508 203.831 203.727C203.026 205.638 202.722 207.722 202.947 209.784C202.957 210.231 203.317 210.591 203.764 210.601H258.726C261.262 210.601 263.824 210.706 266.358 210.601C266.395 210.6 266.432 210.601 266.469 210.601C266.918 210.595 267.28 210.232 267.287 209.784V186.604C267.271 186.163 266.91 185.815 266.469 185.815C266.029 185.815 265.667 186.163 265.652 186.604V209.784L266.469 208.967H206.322C205.508 208.91 204.69 208.91 203.875 208.967C203.838 208.969 203.801 208.969 203.764 208.967L204.582 209.784C204.193 206.084 205.632 201.68 209.343 200.173C212.343 198.955 216.291 199.903 217.818 202.907C218.26 203.778 219.478 203.14 219.312 202.277C218.791 199.712 220.365 197.187 222.897 196.526C225.43 195.864 228.038 197.297 228.838 199.789C229.118 200.625 230.483 200.537 230.443 199.572C230.289 195.847 230.413 191.057 233.963 188.811C236.751 187.047 240.477 188.586 241.824 191.437C242.234 192.307 243.513 191.673 243.318 190.807C242.525 187.284 242.906 183.006 245.614 180.356C246.314 179.648 247.172 179.117 248.117 178.807C249.236 178.449 250.461 178.724 251.32 179.525C252.953 180.925 254.307 182.62 255.312 184.522C256.488 186.697 257.201 189.091 257.408 191.556C257.423 191.996 257.785 192.345 258.225 192.345C258.666 192.345 259.027 191.996 259.043 191.556C259.081 190.542 259.324 189.548 259.756 188.63C260.098 187.917 260.658 186.836 261.495 186.619C262.9 186.256 263.352 188.716 263.493 189.635C263.585 189.947 263.853 190.175 264.176 190.217C264.499 190.26 264.816 190.108 264.986 189.83C265.448 188.793 266.156 187.884 267.047 187.182C267.866 186.52 266.703 185.37 265.892 186.025Z"
            fill="#76A9FA" />
      <path
            d="M109 142.853H140.251C140.691 142.837 141.04 142.476 141.04 142.036C141.04 141.595 140.691 141.234 140.251 141.218H109C108.56 141.234 108.211 141.595 108.211 142.036C108.211 142.476 108.56 142.837 109 142.853Z"
            fill="#76A9FA" />
      <path
            d="M109 149.841H140.251C140.691 149.826 141.04 149.464 141.04 149.024C141.04 148.583 140.691 148.222 140.251 148.206H109C108.56 148.222 108.211 148.583 108.211 149.024C108.211 149.464 108.56 149.826 109 149.841Z"
            fill="#76A9FA" />
      <path
            d="M109 156.829H140.251C140.691 156.814 141.04 156.453 141.04 156.012C141.04 155.571 140.691 155.21 140.251 155.195H109C108.56 155.21 108.211 155.571 108.211 156.012C108.211 156.453 108.56 156.814 109 156.829Z"
            fill="#76A9FA" />
      <path
            d="M109.001 163.818H140.252C140.692 163.803 141.042 163.441 141.042 163C141.042 162.559 140.692 162.198 140.252 162.183H109.001C108.56 162.198 108.211 162.559 108.211 163C108.211 163.441 108.56 163.803 109.001 163.818Z"
            fill="#76A9FA" />
      <path
            d="M109.001 170.806H140.252C140.692 170.791 141.042 170.429 141.042 169.988C141.042 169.548 140.692 169.186 140.252 169.171H109.001C108.56 169.186 108.211 169.548 108.211 169.988C108.211 170.429 108.56 170.791 109.001 170.806Z"
            fill="#76A9FA" />
      <path
            d="M109.001 177.794H140.252C140.692 177.779 141.042 177.417 141.042 176.977C141.042 176.536 140.692 176.174 140.252 176.159H109.001C108.56 176.174 108.211 176.536 108.211 176.977C108.211 177.417 108.56 177.779 109.001 177.794Z"
            fill="#76A9FA" />
      <path
            d="M109.001 184.782H140.252C140.692 184.767 141.042 184.406 141.042 183.965C141.042 183.524 140.692 183.163 140.252 183.148H109.001C108.56 183.163 108.211 183.524 108.211 183.965C108.211 184.406 108.56 184.767 109.001 184.782Z"
            fill="#76A9FA" />
      <path
            d="M109.001 191.771H140.252C140.692 191.755 141.042 191.394 141.042 190.953C141.042 190.512 140.692 190.151 140.252 190.136H109.001C108.56 190.151 108.211 190.512 108.211 190.953C108.211 191.394 108.56 191.755 109.001 191.771Z"
            fill="#76A9FA" />
      <rect x="0.984375" y="27.0313" width="558.039" height="558.039" fill="url(#pattern0)" />
      <defs>
            <pattern id="pattern0" patternContentUnits="objectBoundingBox">
                  <use xlinkHref="#image0_13183_80424" transform="scale(0.000488998)" />
            </pattern>

      </defs>
</svg>